<svg xmlns="http://www.w3.org/2000/svg" version="1.1" xmlns:xlink="http://www.w3.org/1999/xlink" width="1500" height="1500" viewBox="0 0 1500 1500"><rect width="1500" height="1500" x="0" y="0" id="background" stroke="transparent" fill="#39cccc"></rect><svg xml:space="preserve" width="1000" height="1000" data-version="2" data-id="lg_makIG67vRdLdH0OqA0" viewBox="0 0 650 406" x="250" y="250"><rect width="100%" height="100%" fill="transparent"></rect><g transform="translate(334.845 56.516)scale(3.89)"><linearGradient id="a" x1="0" x2="1" y1="0" y2="0" gradientUnits="objectBoundingBox"><stop offset="0%" stop-color="#0f3054"></stop><stop offset="49.8%" stop-color="#3b8dcb"></stop><stop offset="100%" stop-color="#0f3054"></stop></linearGradient><path fill="url(#a)" d="M44.78 25 32 4.08 19.22 25zM28 19a4 4 0 1 1 8 0 4 4 0 0 1-8 0m1.02-6.2c.7-.4 1.74-.8 2.98-.8s2.27.4 2.98.8l1.13 1.84a5.97 5.97 0 0 0-8.22 0zM36.46 23a6 6 0 0 0 1.3-5.65L41.22 23zm-3.11-12.88a8 8 0 0 0-2.7 0L32 7.92zm-7.11 7.23a6 6 0 0 0 1.3 5.65h-4.76z" transform="translate(-32 -14.54)"></path></g><g transform="translate(334.845 73.865)scale(3.89)"><linearGradient id="b" x1="0" x2="1" y1="0" y2="0" gradientUnits="objectBoundingBox"><stop offset="0%" stop-color="#0f3054"></stop><stop offset="49.8%" stop-color="#3b8dcb"></stop><stop offset="100%" stop-color="#0f3054"></stop></linearGradient><path fill="url(#b)" d="M32 16a3 3 0 1 0 0 6 3 3 0 0 0 0-6m0 4a1 1 0 1 1 0-2 1 1 0 0 1 0 2" transform="translate(-32 -19)"></path></g><g transform="translate(334.845 124.435)scale(3.89)"><linearGradient id="c" x1="0" x2="1" y1="0" y2="0" gradientUnits="objectBoundingBox"><stop offset="0%" stop-color="#0f3054"></stop><stop offset="49.8%" stop-color="#3b8dcb"></stop><stop offset="100%" stop-color="#0f3054"></stop></linearGradient><path fill="url(#c)" d="M63.62 63 45.96 27.68A17 17 0 0 0 49 18c0-9.37-7.63-17-17-17-9.37 0-17 7.63-17 17 0 3.6 1.13 6.93 3.04 9.68L.38 63zM22 38v-3h6v5H14.12l2.5-5H20v3zm27.88 2H46v-5h1.38zM48 58v3h-6v-5h14v5h-6v-3zm-32-2v5h-6v-5zm4-7v5h-6v-5zm4-7v5h-6v-5zm8 0v5h-6v-5zm8 0v5h-6v-5zm8 0v5h-6v-5zm-2 12v-5h6v5zm-8 0v-5h6v5zm-16 0v-5h6v3h2v-3h6v5zm-4 2h6v5h-6zm8 0h6v5h-6zm8 0h6v5h-6zm20-2v-5.76L56.88 54zm-4-7v-5h.88l2.5 5zm-6-7h-6v-5h6zm-8-5v5h-6v-5zm-20 7v5h-5.38l2.5-5zm-4 7v5H7.12l2.5-5zm-4 7v5H3.62l2.5-5zm50 5v-4.76L60.38 61zM46.38 33h-6.4a17 17 0 0 0 4.6-3.6zM32 3c8.27 0 15 6.73 15 15s-6.73 15-15 15-15-6.73-15-15S23.73 3 32 3m-7.98 30h-6.4l1.8-3.6a17 17 0 0 0 4.6 3.6" transform="translate(-32 -32)"></path></g><path fill="#010c80" d="M53.25 329.89v-41.28h35.7v9.9H66.51v5.7h19.2v9.48h-19.2v6.3h22.86v9.9zm54.06 0H95.37v-43.5h11.94zm27.78 0h-12.54l-12-31.68h12.84l5.82 19.74h.42l5.82-19.74h11.76zm31.32-32.4q8.34 0 13.11 4.23t4.77 12.33q0 8.1-4.77 12.33t-13.11 4.23q-8.34 0-13.08-4.2t-4.74-12.36q0-8.16 4.74-12.36 4.74-4.2 13.08-4.2m0 8.1q-5.88 0-5.88 6.78v3.42q0 6.72 5.88 6.72 5.94 0 5.94-6.72v-3.42q0-6.78-5.94-6.78m42.12-8.16q1.38 0 2.46.33t1.08.39v10.02h-3.84q-3.72 0-5.37 1.92t-1.65 5.7v14.1h-11.94v-31.68h9.78l.78 4.8q1.08-2.76 3.42-4.17 2.34-1.41 5.28-1.41m22.26.06q7.26 0 11.82 2.43 4.56 2.43 4.56 7.89v12.36q0 1.02.48 1.68.48.66 1.44.66h2.16v6.9q-.18.12-.93.39t-2.13.54q-1.38.27-3.18.27-3.48 0-5.73-1.05-2.25-1.05-3.09-2.91-2.28 1.8-5.1 2.88-2.82 1.08-6.6 1.08-11.16 0-11.16-8.88 0-4.62 2.49-7.05 2.49-2.43 7.17-3.33 4.68-.9 12.24-.9v-1.56q0-1.86-1.29-2.82-1.29-.96-3.33-.96-1.86 0-3.21.66-1.35.66-1.35 2.1v.24h-11.76q-.06-.3-.06-.84 0-4.5 4.29-7.14 4.29-2.64 12.27-2.64m4.44 18.6q-5.1 0-7.53 1.11-2.43 1.11-2.43 2.97 0 3 4.08 3 2.34 0 4.11-1.26 1.77-1.26 1.77-3.12zm58.86-28.2q9.18 0 14.52 4.59t5.34 13.11h-12.66q0-3.6-1.89-5.7t-5.37-2.1q-4.02 0-5.91 2.52-1.89 2.52-1.89 7.02v3.84q0 4.44 1.89 6.99t5.79 2.55q3.84 0 5.82-1.98 1.98-1.98 1.98-5.58h12.24q0 8.46-5.19 12.96t-14.67 4.5q-10.56 0-15.99-5.4t-5.43-15.96q0-10.56 5.43-15.96t15.99-5.4m41.76 9.6q8.34 0 13.11 4.23t4.77 12.33q0 8.1-4.77 12.33t-13.11 4.23q-8.34 0-13.08-4.2t-4.74-12.36q0-8.16 4.74-12.36 4.74-4.2 13.08-4.2m0 8.1q-5.88 0-5.88 6.78v3.42q0 6.72 5.88 6.72 5.94 0 5.94-6.72v-3.42q0-6.78-5.94-6.78m44.7-8.1q5.52 0 8.28 3.06t2.76 8.82v20.52h-11.94v-19.08q0-2.04-1.05-3.27t-2.97-1.23q-2.22 0-3.6 1.44t-1.38 3.54v18.6h-11.94v-31.68h9.78l.78 4.8q1.86-2.52 4.89-4.02 3.03-1.5 6.39-1.5m32.46 0q6.36 0 10.77 2.49 4.41 2.49 4.41 7.71h-11.1q0-1.74-1.56-2.46-1.08-.6-2.7-.6-4.32 0-4.32 2.04 0 1.14 1.5 1.62 1.5.48 4.92 1.02 4.2.6 7.02 1.41 2.82.81 4.92 2.88t2.1 5.79q0 6.06-4.53 8.64-4.53 2.58-11.85 2.58-4.2 0-7.92-1.17-3.72-1.17-6.06-3.63-2.34-2.46-2.34-6.24h11.1v.24q.06 2.04 1.71 2.85t3.51.81q4.98 0 4.98-2.34 0-1.2-1.56-1.74t-5.1-1.14q-4.26-.72-6.99-1.56-2.73-.84-4.77-2.85-2.04-2.01-2.04-5.61 0-5.82 4.41-8.28 4.41-2.46 11.49-2.46m53.58 32.4h-9.78l-.78-4.8q-1.86 2.58-4.89 4.05-3.03 1.47-6.39 1.47-5.52 0-8.28-3.06t-2.76-8.82v-20.52h11.94v19.08q0 2.04 1.05 3.27t2.97 1.23q2.22 0 3.6-1.44t1.38-3.54v-18.6h11.94zm18.84 0h-11.94v-43.5h11.94zm21.24-31.68h6.72v8.1h-6.72v12.06q0 2.16.72 3.15.72.99 2.64.99h3.36v7.02q-1.44.48-3.72.78-2.28.3-3.96.3-5.28 0-8.13-1.92-2.85-1.92-2.85-6.54v-15.84h-4.44v-8.1h4.92l2.58-9.6h8.88zm23.82-3.72h-11.94v-8.1h11.94zm0 35.4h-11.94v-31.68h11.94zm28.68-32.4q5.52 0 8.28 3.06t2.76 8.82v20.52h-11.94v-19.08q0-2.04-1.05-3.27t-2.97-1.23q-2.22 0-3.6 1.44t-1.38 3.54v18.6h-11.94v-31.68h9.78l.78 4.8q1.86-2.52 4.89-4.02 3.03-1.5 6.39-1.5m53.04-5.22q0 3.66-1.83 5.64-1.83 1.98-5.49 2.94 1.74 1.32 2.73 3.09.99 1.77.99 3.75 0 5.04-3.81 7.62t-9.51 2.58h-4.56q-3.78 0-3.78 1.74 0 .84.84 1.35.84.51 2.94.51h10.8q5.28 0 7.98 2.76t2.7 7.38q0 3.42-1.8 5.88t-4.86 3.72q-3.06 1.26-6.66 1.26h-17.64q-2.16 0-3.99-1.02t-2.91-2.79q-1.08-1.77-1.08-3.93 0-2.34 1.44-4.23 1.44-1.89 3.6-2.85-1.44-1.02-2.28-2.46-.84-1.44-.84-3.12 0-2.34 1.74-4.23 1.74-1.89 4.32-2.55-2.34-1.5-3.72-3.45-1.38-1.95-1.38-4.11 0-5.52 4.47-7.89t11.85-2.37q3.24 0 5.22.36 2.94-1.86 3.81-3.39.87-1.53.87-2.19zm-19.86 11.46q-1.98 0-3.24 1.02-1.26 1.02-1.26 2.94 0 1.98 1.17 2.97 1.17.99 3.33.99t3.39-.99q1.23-.99 1.23-2.97 0-1.98-1.23-2.97-1.23-.99-3.39-.99m-4.62 26.16q-1.38 0-2.25.75-.87.75-.87 2.13t.9 2.22q.9.84 2.22.84h9.36q1.32 0 2.25-.81.93-.81.93-2.19t-.9-2.16q-.9-.78-2.28-.78zm-570.8 42.29q4.36 0 7.16 1.77 2.81 1.76 2.87 5.23v.4h-6.83v-.14q0-.99-.72-1.65-.73-.66-2.21-.66-1.46 0-2.23.43-.78.43-.78 1.06 0 .89 1.06 1.32 1.05.43 3.4.89 2.74.56 4.5 1.17 1.77.61 3.09 2 1.32 1.38 1.35 3.76 0 4.03-2.72 5.97-2.72 1.95-7.28 1.95-5.31 0-8.26-1.78-2.96-1.78-2.96-6.31h6.9q0 1.72.89 2.3.89.58 2.77.58 1.39 0 2.3-.3.9-.3.9-1.22 0-.83-1-1.24-1.01-.41-3.29-.87-2.77-.6-4.58-1.24-1.82-.65-3.17-2.13-1.36-1.49-1.36-4.03 0-3.73 2.89-5.49 2.89-1.77 7.31-1.77m31.85 23.1H43.4l-.43-2.64q-1.02 1.42-2.69 2.23t-3.52.81q-3.03 0-4.55-1.68-1.52-1.69-1.52-4.85v-11.29h6.57v10.49q0 1.13.58 1.8.57.68 1.63.68 1.22 0 1.98-.79.76-.8.76-1.95v-10.23h6.57zm15.47-17.83q3.53 0 5.45 2.31 1.91 2.31 1.91 6.83 0 4.49-1.91 6.79-1.92 2.29-5.45 2.29-3.03 0-4.88-1.98v8.08H52.8v-23.92h5.35l.56 2.47q1.91-2.87 5.54-2.87m-2.04 4.85q-1.45 0-2.18 1.03-.73 1.02-.73 2.67v1.09q0 1.65.73 2.69t2.18 1.04q2.84 0 2.84-3.4v-1.75q0-3.37-2.84-3.37m24.04-4.85q3.54 0 5.45 2.31 1.91 2.31 1.91 6.83 0 4.49-1.91 6.79-1.91 2.29-5.45 2.29-3.03 0-4.88-1.98v8.08H74.8v-23.92h5.35l.56 2.47q1.91-2.87 5.54-2.87m-2.04 4.85q-1.45 0-2.18 1.03-.73 1.02-.73 2.67v1.09q0 1.65.73 2.69t2.18 1.04q2.84 0 2.84-3.4v-1.75q0-3.37-2.84-3.37m21.58-4.84q4.59 0 7.21 2.33t2.62 6.78q0 4.46-2.62 6.78-2.62 2.33-7.21 2.33t-7.19-2.31q-2.61-2.31-2.61-6.8t2.61-6.8q2.6-2.31 7.19-2.31m0 4.46q-3.23 0-3.23 3.73v1.88q0 3.69 3.23 3.69 3.27 0 3.27-3.69v-1.88q0-3.73-3.27-3.73m23.61-4.5q.75 0 1.35.18.59.18.59.22v5.51h-2.11q-2.05 0-2.95 1.05-.91 1.06-.91 3.14v7.75h-6.57v-17.42h5.38l.43 2.64q.59-1.52 1.88-2.29 1.29-.78 2.91-.78m11.97.44h3.7v4.45h-3.7v6.64q0 1.19.4 1.73t1.45.54h1.85v3.87q-.79.26-2.05.42-1.25.17-2.17.17-2.91 0-4.47-1.06-1.57-1.05-1.57-3.59v-8.72h-2.44v-4.45h2.7l1.42-5.28h4.88zm13.53-2.05h-6.56v-4.45h6.56zm0 19.47h-6.56v-17.42h6.56zm16.21-17.83q3.03 0 4.55 1.69 1.52 1.68 1.52 4.85v11.28h-6.57v-10.49q0-1.12-.57-1.8-.58-.68-1.64-.68-1.22 0-1.98.8-.76.79-.76 1.94v10.23h-6.56v-17.42h5.37l.43 2.64q1.03-1.39 2.69-2.21 1.67-.83 3.52-.83m29.6-2.86q0 2.02-1.01 3.1-1 1.09-3.02 1.62.96.73 1.5 1.7.55.97.55 2.06 0 2.78-2.1 4.19-2.09 1.42-5.23 1.42h-2.51q-2.07 0-2.07.96 0 .46.46.74.46.28 1.61.28h5.94q2.91 0 4.39 1.52 1.49 1.52 1.49 4.06 0 1.88-.99 3.23-.99 1.36-2.67 2.05-1.69.69-3.67.69h-9.7q-1.19 0-2.19-.56-1.01-.56-1.6-1.53-.6-.98-.6-2.16 0-1.29.79-2.33.8-1.04 1.98-1.57-.79-.56-1.25-1.35-.46-.79-.46-1.72 0-1.28.95-2.32.96-1.04 2.38-1.41-1.29-.82-2.05-1.89-.75-1.08-.75-2.26 0-3.04 2.45-4.34 2.46-1.31 6.52-1.31 1.78 0 2.87.2 1.62-1.02 2.1-1.86.48-.84.48-1.21zm-10.92 6.31q-1.09 0-1.79.56-.69.56-.69 1.61 0 1.09.64 1.64.65.54 1.84.54 1.18 0 1.86-.54.68-.55.68-1.64 0-1.09-.68-1.63-.68-.54-1.86-.54m-2.55 14.38q-.75 0-1.23.42-.48.41-.48 1.17t.49 1.22q.5.46 1.22.46h5.15q.73 0 1.24-.45.51-.44.51-1.2t-.49-1.19q-.5-.43-1.26-.43zm47.81-16.89h-7.42v16.89h-7.3v-16.89h-7.45v-5.81h22.17zm13.48-.97q.75 0 1.35.18.59.18.59.22v5.51h-2.11q-2.05 0-2.95 1.05-.91 1.06-.91 3.14v7.75h-6.57v-17.42h5.38l.43 2.64q.59-1.52 1.88-2.29 1.29-.78 2.91-.78m22.07 17.86h-5.38l-.43-2.64q-1.02 1.42-2.68 2.23-1.67.81-3.52.81-3.04 0-4.55-1.68-1.52-1.69-1.52-4.85v-11.29h6.57v10.49q0 1.13.57 1.8.58.68 1.64.68 1.22 0 1.98-.79.76-.8.76-1.95v-10.23h6.56zm13-17.82q4.79 0 7.31 2.25 2.53 2.24 2.53 6.86v1.12h-13.07q0 1.88.84 2.84t2.66.96q1.65 0 2.42-.69.78-.7.78-1.85h6.37q0 3.17-2.41 4.95-2.41 1.78-7.03 1.78-4.85 0-7.52-2.26-2.68-2.26-2.68-6.85 0-4.49 2.61-6.8 2.61-2.31 7.19-2.31m.27 4.19q-3.1 0-3.47 2.94h6.41q0-1.35-.78-2.14-.78-.8-2.16-.8m24.19 13.63v-22.7h19.63v5.44h-12.34v3.14h10.56v5.21h-10.56v3.47h12.57v5.44zm36.69-9.07 6.54 9.07h-7.66l-3.3-5.47h-.13l-3.33 5.47h-7.3l6.7-9.24-6.04-8.18h7.73l2.77 4.62h.13l2.77-4.62h7.26zm17.69-8.75q4.29 0 6.95 1.83 2.65 1.84 2.65 5.6h-6.36q0-2.97-3.24-2.97-3.23 0-3.23 3.73v1.88q0 3.69 3.36 3.69 3.37 0 3.37-3.03h6.1q0 3.79-2.65 5.64-2.66 1.85-6.95 1.85-4.59 0-7.19-2.31-2.61-2.31-2.61-6.8t2.61-6.8q2.6-2.31 7.19-2.31m22.01 0q4.79 0 7.31 2.25 2.53 2.24 2.53 6.86v1.12h-13.07q0 1.88.84 2.84t2.66.96q1.65 0 2.42-.69.78-.7.78-1.85h6.37q0 3.17-2.41 4.95-2.41 1.78-7.03 1.78-4.85 0-7.53-2.26-2.67-2.26-2.67-6.85 0-4.49 2.61-6.8 2.61-2.31 7.19-2.31m.27 4.19q-3.11 0-3.47 2.94h6.4q0-1.35-.77-2.14-.78-.8-2.16-.8m19.53 13.63h-6.56v-23.92h6.56zm10.99 0h-6.57v-23.92h6.57zm13.2-17.82q4.79 0 7.31 2.25 2.53 2.24 2.53 6.86v1.12h-13.07q0 1.88.84 2.84t2.66.96q1.65 0 2.42-.69.78-.7.78-1.85h6.37q0 3.17-2.41 4.95-2.41 1.78-7.03 1.78-4.85 0-7.53-2.26-2.67-2.26-2.67-6.85 0-4.49 2.61-6.8 2.6-2.31 7.19-2.31m.27 4.19q-3.11 0-3.47 2.94h6.4q0-1.35-.77-2.14-.78-.8-2.16-.8m24.75-4.2q3.03 0 4.55 1.69 1.52 1.68 1.52 4.85v11.28h-6.57v-10.49q0-1.12-.58-1.8-.57-.68-1.63-.68-1.22 0-1.98.8-.76.79-.76 1.94v10.23h-6.57v-17.42h5.38l.43 2.64q1.02-1.39 2.69-2.21 1.67-.83 3.52-.83m19 .01q4.29 0 6.95 1.83 2.66 1.84 2.66 5.6h-6.37q0-2.97-3.24-2.97-3.23 0-3.23 3.73v1.88q0 3.69 3.37 3.69 3.36 0 3.36-3.03h6.11q0 3.79-2.66 5.64-2.66 1.85-6.95 1.85-4.58 0-7.19-2.31-2.61-2.31-2.61-6.8t2.61-6.8q2.61-2.31 7.19-2.31m22.01 0q4.79 0 7.31 2.25 2.53 2.24 2.53 6.86v1.12h-13.07q0 1.88.84 2.84t2.66.96q1.65 0 2.42-.69.78-.7.78-1.85h6.37q0 3.17-2.41 4.95-2.41 1.78-7.03 1.78-4.85 0-7.52-2.26-2.68-2.26-2.68-6.85 0-4.49 2.61-6.8 2.61-2.31 7.19-2.31m.27 4.19q-3.1 0-3.47 2.94h6.41q0-1.35-.78-2.14-.78-.8-2.16-.8m30.52-5.84h-6.56v-4.45h6.56zm0 19.47h-6.56v-17.42h6.56zm16.21-17.83q3.03 0 4.55 1.69 1.52 1.68 1.52 4.85v11.28h-6.57v-10.49q0-1.12-.58-1.8-.57-.68-1.63-.68-1.22 0-1.98.8-.76.79-.76 1.94v10.23h-6.57v-17.42h5.38l.43 2.64q1.03-1.39 2.69-2.21 1.67-.83 3.52-.83m32.27-5.27q5.05 0 7.99 2.53 2.93 2.52 2.93 7.21h-6.96q0-1.98-1.04-3.14-1.04-1.15-2.95-1.15-2.21 0-3.25 1.38-1.04 1.39-1.04 3.87v2.11q0 2.44 1.04 3.84t3.18 1.4q2.11 0 3.2-1.08 1.09-1.09 1.09-3.07h6.73q0 4.65-2.85 7.12-2.86 2.48-8.07 2.48-5.81 0-8.79-2.97-2.99-2.97-2.99-8.78 0-5.81 2.99-8.78 2.98-2.97 8.79-2.97m23 5.28q3.99 0 6.5 1.34t2.51 4.34v6.8q0 .56.26.92.27.36.8.36h1.18v3.8q-.09.07-.51.21-.41.15-1.17.3t-1.75.15q-1.91 0-3.15-.58t-1.7-1.6q-1.25.99-2.8 1.59-1.55.59-3.63.59-6.14 0-6.14-4.88 0-2.55 1.37-3.88 1.37-1.34 3.94-1.83 2.58-.5 6.73-.5v-.86q0-1.02-.71-1.55t-1.83-.53q-1.02 0-1.76.37-.75.36-.75 1.15v.13h-6.46q-.04-.16-.04-.46 0-2.47 2.36-3.92 2.36-1.46 6.75-1.46m2.44 10.23q-2.8 0-4.14.61-1.33.61-1.33 1.64 0 1.65 2.24 1.65 1.29 0 2.26-.7.97-.69.97-1.71zm21.55-10.27q.76 0 1.36.18.59.18.59.22v5.51h-2.11q-2.05 0-2.96 1.05-.9 1.06-.9 3.14v7.75h-6.57v-17.42h5.38l.43 2.64q.59-1.52 1.88-2.29 1.29-.78 2.9-.78m13.06.04q4.79 0 7.31 2.25 2.52 2.24 2.52 6.86v1.12h-13.06q0 1.88.84 2.84t2.65.96q1.65 0 2.43-.69.78-.7.78-1.85h6.36q0 3.17-2.4 4.95-2.41 1.78-7.03 1.78-4.85 0-7.53-2.26-2.67-2.26-2.67-6.85 0-4.49 2.61-6.8 2.6-2.31 7.19-2.31m.26 4.19q-3.1 0-3.46 2.94h6.4q0-1.35-.77-2.14-.78-.8-2.17-.8"></path></svg></svg>